<svg version="1.1" viewBox="0.0 0.0 1764.0 920.0" fill="none" stroke="none" stroke-linecap="square" stroke-miterlimit="10" xmlns:xlink="http://www.w3.org/1999/xlink" xmlns="http://www.w3.org/2000/svg"><clipPath id="p.0"><path d="m0 0l1764.0 0l0 920.0l-1764.0 0l0 -920.0z" clip-rule="nonzero"/></clipPath><g clip-path="url(#p.0)"><path fill="#7f4ba2" d="m0 0l1764.0 0l0 920.0l-1764.0 0z" fill-rule="evenodd"/><path fill="#9461b6" d="m-10.890297 463.60477c22.531479 -34.280487 -20.796867 24.906769 31.198917 53.831085c51.995785 28.924316 254.20035 73.11505 280.7758 119.71478c26.575409 46.59973 -51.99579 145.55548 -121.32323 159.88354c-69.32745 14.328003 -262.8662 -18.343933 -294.64145 -73.91547c-31.775246 -55.571594 81.45848 -225.23349 103.98996 -259.51395z" fill-rule="evenodd"/><path fill="#9461b6" d="m-185.39098 252.41086c66.06634 -1.3653717 179.79167 -105.661545 267.55756 -91.17619c87.7659 14.485367 144.9718 152.27058 259.03784 178.08836c114.06604 25.81778 284.13773 -27.504211 425.35843 -23.18164c141.2207 4.322571 239.13177 14.904541 421.96582 49.117065c182.8341 34.212524 645.82935 162.15067 675.03845 156.15811c29.208984 -5.9926147 -507.83777 -158.48837 -499.78394 -192.11356c8.053833 -33.625183 556.32056 1.1376038 548.1067 -9.637573c-8.213867 -10.775177 -405.3285 -44.858795 -597.39 -55.01352c-192.06152 -10.154709 -410.43408 -9.512604 -554.9791 -5.914795c-144.54498 3.5978394 -214.36163 57.397064 -312.2908 27.50174c-97.92917 -29.895325 -148.374 -187.40497 -275.2842 -206.87363c-126.91023 -19.468658 -426.62103 61.220734 -486.17715 90.06166c-59.55612 28.840942 62.77411 84.349335 128.84044 82.98396z" fill-rule="evenodd"/><path fill="#a451db" d="m-285.39606 268.3665c-2.1188354 -1.0714722 -10.594177 -5.3573 -12.713013 -6.4287415" fill-rule="evenodd"/><path fill="#9461b6" d="m1116.1708 -1.6082796c4.0446777 10.9806185 131.72437 35.753242 194.11902 65.07886c62.394653 29.325623 42.941772 102.70674 180.24866 110.87485c137.30688 8.168121 615.6693 -53.429764 643.5929 -61.866165c27.92334 -8.436394 -437.72937 28.923187 -476.0525 11.247787c-38.322998 -17.675415 252.66113 -106.453766 246.11414 -117.30024c-6.546997 -10.8464775 -182.36743 53.6947 -285.39612 52.221375c-103.028564 -1.4733238 -249.00452 -51.01857 -332.7755 -61.061317c-83.77112 -10.042745 -173.89539 -10.175768 -169.85059 0.8048502z" fill-rule="evenodd"/><path fill="#9461b6" d="m210.61966 542.7139c-15.174438 -8.899841 -23.207489 -127.14218 66.05383 -129.68506c89.26132 -2.5428772 367.459 104.765076 469.51413 114.427795c102.055176 9.662781 67.83716 -52.6369 142.81671 -56.451416c74.97955 -3.8145142 267.4881 11.695984 307.0606 33.5643c39.57251 21.868317 -105.92517 96.11984 -69.62549 97.64566c36.299683 1.5258179 208.57617 -84.16797 287.42383 -88.49078c78.84766 -4.3228455 190.12537 51.874023 185.66199 62.553772c-4.463379 10.67981 -183.87866 -7.374878 -212.44226 1.5249634c-28.563477 8.899841 59.805664 49.331116 41.061035 51.874023c-18.744629 2.5428467 -135.97424 -61.282593 -153.52881 -36.61682c-17.554565 24.665771 84.5011 156.13165 48.201416 184.61157c-36.299805 28.479858 -217.20361 11.950562 -265.99976 -13.7323c-48.79608 -25.682861 10.415283 -119.2594 -26.7771 -140.3648c-37.192383 -21.105469 -150.25854 -10.678955 -196.3772 13.732239c-46.118652 24.411194 -54.449036 143.66931 -80.334595 132.73492c-25.885498 -10.934387 -21.124207 -183.08441 -74.978516 -198.34119c-53.85431 -15.256775 -228.80728 112.39453 -248.14719 106.80054c-19.339935 -5.594055 133.59561 -108.833374 132.10764 -140.36487c-1.487915 -31.531494 -126.75363 -54.164032 -141.03543 -48.824127c-14.281769 5.3398743 63.378387 59.50351 55.34482 80.863495c-8.033569 21.360046 -85.3963 64.58795 -103.54617 47.29657c-18.149841 -17.29132 21.722595 -138.58484 -5.3529663 -151.04459c-27.075592 -12.459747 -141.92607 85.18588 -157.10052 76.2861z" fill-rule="evenodd"/><path fill="#9461b6" d="m-146.09239 173.35803c22.531471 -34.28047 -20.796875 24.906769 31.198914 53.831085c51.99578 28.924316 254.20036 73.11505 280.7758 119.71478c26.575424 46.59973 -51.99579 145.55551 -121.32323 159.88354c-69.327446 14.327972 -262.86618 -18.343903 -294.64142 -73.91547c-31.775253 -55.571564 81.45848 -225.23346 103.98996 -259.51395z" fill-rule="evenodd"/><path fill="#9461b6" d="m-174.71118 211.21664c66.06633 -1.3653717 179.79166 -105.66156 267.55756 -91.1762c87.76591 14.485359 144.9718 152.2706 259.03787 178.08838c114.06604 25.81778 284.13773 -27.504211 425.35843 -23.18164c141.2207 4.3225403 239.13177 14.9045105 421.96582 49.117065c182.83398 34.212524 645.82935 162.15063 675.0383 156.15808c29.209106 -5.992584 -507.83765 -158.48834 -499.7838 -192.11353c8.053833 -33.625183 556.32056 1.1376038 548.1067 -9.637573c-8.213867 -10.7752075 -405.3285 -44.85881 -597.39 -55.01352c-192.06152 -10.154724 -410.43414 -9.512619 -554.9791 -5.914795c-144.54498 3.597824 -214.36163 57.397034 -312.2908 27.501724c-97.92917 -29.895325 -148.374 -187.40497 -275.28424 -206.87363c-126.910225 -19.468658 -426.62103 61.22073 -486.17715 90.061676c-59.55612 28.840927 62.77411 84.349335 128.84045 82.98396z" fill-rule="evenodd"/><path fill="#a451db" d="m-285.39606 268.3665c-2.1188354 -1.0714722 -10.594177 -5.3573 -12.713013 -6.4287415" fill-rule="evenodd"/><path fill="#9461b6" d="m1116.1708 -1.6082796c4.0446777 10.9806185 131.72437 35.753242 194.11902 65.07886c62.394653 29.325623 42.941772 102.70674 180.24866 110.87485c137.30688 8.168121 615.6693 -53.429764 643.5929 -61.866165c27.92334 -8.436394 -437.72937 28.923187 -476.0525 11.247787c-38.322998 -17.675415 252.66113 -106.453766 246.11414 -117.30024c-6.546997 -10.8464775 -182.36743 53.6947 -285.39612 52.221375c-103.028564 -1.4733238 -249.00452 -51.01857 -332.7755 -61.061317c-83.77112 -10.042745 -173.89539 -10.175768 -169.85059 0.8048502z" fill-rule="evenodd"/><path fill="#7f4ba2" d="m905.52 240.7005l0 0c1.1480713 -9.210556 34.61035 -12.594849 74.74017 -7.559067l0 0c40.12976 5.035797 71.730774 16.584732 70.5827 25.795273l0 0c-1.1480713 9.210541 -34.610413 12.594849 -74.74017 7.5590515l0 0c-40.12982 -5.0357666 -71.730774 -16.584717 -70.5827 -25.795258z" fill-rule="evenodd"/><path fill="#7f4ba2" d="m801.73267 242.66196l0 0c-0.94799805 -5.3836823 15.867737 -12.857361 37.559082 -16.692917l0 0c21.691284 -3.8355408 40.044067 -2.580536 40.992126 2.8031464l0 0c0.94799805 5.3836975 -15.867798 12.857361 -37.559082 16.692917l0 0c-21.691284 3.835556 -40.04413 2.580536 -40.992126 -2.8031464z" fill-rule="evenodd"/><path fill="#7f4ba2" d="m1391.625 249.8178l0 0c0 -2.6271057 7.715088 -5.1466217 21.44812 -7.004257c13.73291 -1.8576508 32.358887 -2.9012604 51.78015 -2.9012604l0 0c40.442993 0 73.22839 4.434845 73.22839 9.905518l0 0c0 5.4706573 -32.7854 9.905502 -73.22839 9.905502l0 0c-40.44287 0 -73.22827 -4.434845 -73.22827 -9.905502z" fill-rule="evenodd"/><path fill="#7f4ba2" d="m1187.5839 281.99493l0 0c2.0004883 -5.087982 20.240479 -2.6837158 40.740234 5.3700867l0 0c20.499756 8.053772 35.49646 18.707306 33.496094 23.795258l0 0c-2.0004883 5.087982 -20.240479 2.6837158 -40.740234 -5.370056l0 0c-20.499756 -8.0538025 -35.49646 -18.707306 -33.496094 -23.795288z" fill-rule="evenodd"/><path fill="#7f4ba2" d="m26.635555 97.68033l0 0c-0.9480152 -5.38369 15.867744 -12.857361 37.559055 -16.69291l0 0c21.691307 -3.835556 40.044113 -2.5805435 40.992126 2.8031464l0 0c0.9480133 5.38369 -15.867744 12.857361 -37.55905 16.692917l0 0c-21.691315 3.8355484 -40.044113 2.580536 -40.99213 -2.803154z" fill-rule="evenodd"/><path fill="#7f4ba2" d="m1276.5266 272.09766l0 0c-0.94799805 -5.3836975 15.867798 -12.857361 37.559082 -16.692917l0 0c21.691284 -3.835556 40.044067 -2.580536 40.992065 2.8031464l0 0c0.9481201 5.3836975 -15.867676 12.857361 -37.55896 16.692932l0 0c-21.691406 3.8355408 -40.04419 2.580536 -40.992188 -2.8031616z" fill-rule="evenodd"/><path fill="#7f4ba2" d="m1514.5184 368.88544l0 0c2.4003906 -4.914032 20.400757 -1.0784912 40.204712 8.566925l0 0c19.803955 9.645416 33.91223 21.448181 31.511719 26.362213l0 0c-2.4003906 4.9140015 -20.400635 1.0784607 -40.204712 -8.566956l0 0c-19.803955 -9.645416 -33.91223 -21.44815 -31.511719 -26.362183z" fill-rule="evenodd"/><path fill="#7f4ba2" d="m1425.5778 145.41786l0 0c-0.94799805 -5.3836823 15.867798 -12.857361 37.559082 -16.692917l0 0c21.691284 -3.8355484 40.04419 -2.580536 40.992188 2.8031616l0 0c0.94799805 5.3836823 -15.867798 12.857361 -37.559082 16.692902l0 0c-21.691284 3.835556 -40.044067 2.5805511 -40.992188 -2.8031464z" fill-rule="evenodd"/><path fill="#7f4ba2" d="m733.7523 571.86945l0 0c4.505249 -12.254578 24.91681 -16.019653 45.590576 -8.409424l0 0c20.673706 7.6102295 33.780823 23.713867 29.275574 35.968506l0 0c-4.505249 12.254639 -24.91687 16.019653 -45.590576 8.409424l0 0c-20.673706 -7.6101685 -33.780823 -23.713867 -29.275574 -35.968506z" fill-rule="evenodd"/><path fill="#7f4ba2" d="m1376.4984 35.007687l0 0c3.513794 -9.549742 30.158081 -8.534451 59.51184 2.2677193l0 0c29.353638 10.802166 50.301147 27.300652 46.787354 36.850395l0 0c-3.5136719 9.549744 -30.158081 8.534447 -59.51184 -2.2677155l0 0c-29.353638 -10.80217 -50.301147 -27.300655 -46.787354 -36.8504z" fill-rule="evenodd"/><path fill="#7f4ba2" d="m940.74915 539.15137l0 0c1.8873291 -5.1314697 20.176636 -3.1220703 40.850403 4.488159l0 0c20.673706 7.6102295 35.903076 17.939392 34.015747 23.070862l0 0c-1.8873291 5.1314697 -20.176697 3.1220703 -40.850403 -4.488159l0 0c-20.673706 -7.6102295 -35.903076 -17.939392 -34.015747 -23.070862z" fill-rule="evenodd"/><path fill="#7f4ba2" d="m553.41254 584.916l0 0c-3.2267456 -4.418335 8.57605 -18.533691 26.362183 -31.527588l0 0c17.786194 -12.9938965 34.820496 -19.945862 38.04724 -15.527588l0 0c3.2267456 4.418335 -8.575989 18.533691 -26.362183 31.527588l0 0c-17.786194 12.9938965 -34.820496 19.945862 -38.04724 15.527588z" fill-rule="evenodd"/><path fill="#7f4ba2" d="m360.15857 446.2196l0 0c1.8873596 -5.1314697 20.176697 -3.1220398 40.850403 4.4881897l0 0c20.673706 7.610199 35.903076 17.939392 34.015747 23.070862l0 0c-1.8873291 5.131439 -20.176666 3.1220093 -40.850403 -4.4881897l0 0c-20.673706 -7.6102295 -35.903076 -17.939423 -34.015747 -23.070862z" fill-rule="evenodd"/><path fill="#7f4ba2" d="m214.53821 479.77957l0 0c4.0182037 -10.92392 19.55075 -15.260071 34.692917 -9.685028l0 0c15.142166 5.575012 24.159927 18.950073 20.141739 29.873993l0 0c-4.018219 10.92395 -19.55075 15.260101 -34.692917 9.685059l0 0c-15.142166 -5.5750427 -24.159927 -18.950104 -20.141739 -29.874023z" fill-rule="evenodd"/><path fill="#7f4ba2" d="m1438.7911 539.15137l0 0c1.8873291 -5.1314697 20.176636 -3.1220703 40.85034 4.488159l0 0c20.673706 7.6102295 35.903076 17.939392 34.015747 23.070862l0 0c-1.8873291 5.1314697 -20.176636 3.1220703 -40.85034 -4.488159l0 0c-20.673706 -7.6102295 -35.903076 -17.939392 -34.015747 -23.070862z" fill-rule="evenodd"/><path fill="#7f4ba2" d="m1187.1738 599.1757l0 0c-1.8525391 -5.1401367 13.447388 -15.363586 34.173218 -22.834656l0 0c20.725952 -7.4710693 39.02942 -9.360596 40.881958 -4.220459l0 0c1.8525391 5.1401367 -13.447388 15.363586 -34.173218 22.834656l0 0c-20.725952 7.4710693 -39.02942 9.360596 -40.881958 4.220459z" fill-rule="evenodd"/><path fill="#7f4ba2" d="m1101.1451 505.84363l0 0c4.626953 -12.576447 25.13733 -16.602356 45.811035 -8.992126l0 0c20.673706 7.6102295 33.68213 23.974731 29.055054 36.551147l0 0c-4.626953 12.576477 -25.13733 16.602356 -45.811035 8.992126l0 0c-20.673706 -7.6101685 -33.68213 -23.974731 -29.055054 -36.551147z" fill-rule="evenodd"/><path fill="#7f4ba2" d="m75.51553 329.66315l0 0c1.8873367 -5.131439 20.176682 -3.1220093 40.850395 4.4881897l0 0c20.673714 7.6102295 35.903084 17.939423 34.015755 23.070892l0 0c-1.8873444 5.131439 -20.176682 3.1220093 -40.850403 -4.4881897l0 0c-20.673714 -7.6102295 -35.903084 -17.939423 -34.015747 -23.070892z" fill-rule="evenodd"/><path fill="#7f4ba2" d="m116.28777 431.80994l0 0c6.0098953 6.0098877 -1.7528534 23.502502 -17.338585 39.07086l0 0c-15.585739 15.568329 -33.09246 23.316986 -39.102364 17.307068l0 0c-6.009903 -6.0098877 1.7528458 -23.502502 17.338585 -39.07086l0 0c15.5857315 -15.568329 33.09246 -23.316986 39.102364 -17.307068z" fill-rule="evenodd"/><path fill="#7f4ba2" d="m1588.2242 124.69203l0 0c1.8873291 -5.131462 20.176636 -3.1220322 40.85034 4.4881897l0 0c20.673706 7.610214 35.903076 17.939407 34.015747 23.070862l0 0c-1.8873291 5.1314697 -20.176636 3.1220398 -40.85034 -4.4881897l0 0c-20.673706 -7.610214 -35.903076 -17.939392 -34.015747 -23.070862z" fill-rule="evenodd"/><path fill="#000000" fill-opacity="0.0" d="m-105.708664 132.57512c72.52139 -16.203087 308.9405 -104.262665 435.12836 -97.218506c126.1879 7.044159 132.35413 143.71057 321.99905 139.48346c189.6449 -4.2270966 621.1496 -156.0404 815.8703 -164.84607c194.72083 -8.805655 293.7118 93.34345 352.4541 112.012146" fill-rule="evenodd"/><path stroke="#9461b6" stroke-width="1.0" stroke-linejoin="round" stroke-linecap="butt" d="m-105.708664 132.57512c72.52139 -16.203087 308.9405 -104.262665 435.12836 -97.218506c126.1879 7.044159 132.35413 143.71057 321.99905 139.48346c189.6449 -4.2270966 621.1496 -156.0404 815.8703 -164.84607c194.72083 -8.805655 293.7118 93.34345 352.4541 112.012146" fill-rule="evenodd"/><path fill="#000000" fill-opacity="0.0" d="m1795.3176 109.414696c5.340332 -1.7799606 26.70166 -8.899826 32.041992 -10.679787" fill-rule="evenodd"/><path stroke="#000000" stroke-width="1.0" stroke-linejoin="round" stroke-linecap="butt" d="m1795.3176 109.414696c5.340332 -1.7799606 26.70166 -8.899826 32.041992 -10.679787" fill-rule="evenodd"/><path fill="#000000" fill-opacity="0.0" d="m119.31233 292.64206c72.52139 -16.203094 308.9405 -104.26268 435.12836 -97.21852c126.18793 7.044174 132.35419 143.71056 321.99908 139.48347c189.64484 -4.227112 621.1496 -156.04042 815.8703 -164.84608c194.72083 -8.805649 293.7118 93.34346 352.4541 112.01216" fill-rule="evenodd"/><path stroke="#9461b6" stroke-width="1.0" stroke-linejoin="round" stroke-linecap="butt" d="m119.31233 292.64206c72.52139 -16.203094 308.9405 -104.26268 435.12836 -97.21852c126.18793 7.044174 132.35419 143.71056 321.99908 139.48347c189.64484 -4.227112 621.1496 -156.04042 815.8703 -164.84608c194.72083 -8.805649 293.7118 93.34346 352.4541 112.01216" fill-rule="evenodd"/><path fill="#000000" fill-opacity="0.0" d="m-73.708664 354.0899c72.5214 -33.956055 308.9405 -218.49846 435.12836 -203.73634c126.1879 14.762131 132.35413 301.1676 321.99905 292.30908c189.6449 -8.858551 621.1496 -327.00674 815.8703 -345.46036c194.72083 -18.453606 293.7118 195.6156 352.4541 234.73871" fill-rule="evenodd"/><path stroke="#9461b6" stroke-width="1.0" stroke-linejoin="round" stroke-linecap="butt" d="m-73.708664 354.0899c72.5214 -33.956055 308.9405 -218.49846 435.12836 -203.73634c126.1879 14.762131 132.35413 301.1676 321.99905 292.30908c189.6449 -8.858551 621.1496 -327.00674 815.8703 -345.46036c194.72083 -18.453606 293.7118 195.6156 352.4541 234.73871" fill-rule="evenodd"/><path fill="#000000" fill-opacity="0.0" d="m-114.15748 443.31528c72.52139 -16.203094 308.94046 -104.262665 435.12836 -97.218506c126.1879 7.044159 132.35413 143.71057 321.99902 139.48346c189.6449 -4.227112 621.1496 -156.0404 815.8704 -164.84607c194.7207 -8.805664 293.71167 93.343445 352.45398 112.012146" fill-rule="evenodd"/><path stroke="#9461b6" stroke-width="1.0" stroke-linejoin="round" stroke-linecap="butt" d="m-114.15748 443.31528c72.52139 -16.203094 308.94046 -104.262665 435.12836 -97.218506c126.1879 7.044159 132.35413 143.71057 321.99902 139.48346c189.6449 -4.227112 621.1496 -156.0404 815.8704 -164.84607c194.7207 -8.805664 293.71167 93.343445 352.45398 112.012146" fill-rule="evenodd"/><path fill="#000000" fill-opacity="0.0" d="m-73.708664 609.205c72.5214 -16.203064 308.9405 -104.262634 435.12836 -97.218475c126.1879 7.044159 132.35413 143.71054 321.99905 139.48343c189.6449 -4.227051 621.1496 -156.0404 815.8703 -164.84604c194.72083 -8.805664 293.7118 93.343475 352.4541 112.012115" fill-rule="evenodd"/><path stroke="#9461b6" stroke-width="1.0" stroke-linejoin="round" stroke-linecap="butt" d="m-73.708664 609.205c72.5214 -16.203064 308.9405 -104.262634 435.12836 -97.218475c126.1879 7.044159 132.35413 143.71054 321.99905 139.48343c189.6449 -4.227051 621.1496 -156.0404 815.8703 -164.84604c194.72083 -8.805664 293.7118 93.343475 352.4541 112.012115" fill-rule="evenodd"/><path fill="#ffffff" d="m-95.197266 1254.398c38.17323 -56.82068 59.079178 17.45398 120.84252 22.556396c61.763344 5.102417 181.52975 -5.906372 249.73752 8.057739c68.207794 13.964111 156.28696 114.127686 159.50919 75.72705c3.222229 -38.400757 -180.18765 -297.80664 -140.17584 -306.13123c40.01181 -8.324585 303.44574 240.87708 380.2467 256.18372c76.800964 15.306641 50.4834 -175.08533 80.55908 -164.34387c30.075684 10.741455 73.84729 256.18335 99.89502 228.79272c26.047668 -27.390747 31.954468 -392.86792 56.391052 -393.13654c24.436584 -0.26861572 63.37445 346.4112 90.22833 391.52496c26.853943 45.11377 54.514465 -121.37927 70.89508 -120.84253c16.380493 0.53674316 16.916016 130.23926 27.388428 124.06299c10.472412 -6.1762695 -16.112427 -148.23145 35.446167 -161.12073c51.558594 -12.889404 156.55554 102.045044 273.90552 83.78479c117.349976 -18.260254 336.74414 -223.95935 430.1942 -193.34644c93.450195 30.612793 103.38318 288.07166 130.50659 377.02356c27.123291 88.951904 96.528076 125.239746 32.23352 156.68762c-64.29431 31.447998 -274.33325 24.333374 -418.0 32.0c-143.66663 7.666748 -216.66663 17.0 -444.0 14.0c-227.33325 -3.0 -695.99994 -20.666626 -919.99994 -32.0c-224.0 -11.333252 -371.36615 30.580078 -424.0 -36.0c-52.633865 -66.579956 70.02362 -306.65967 108.19685 -363.48022z" fill-rule="evenodd"/><path stroke="#ffffff" stroke-width="1.0" stroke-linejoin="round" stroke-linecap="butt" d="m-95.197266 1254.398c38.17323 -56.82068 59.079178 17.45398 120.84252 22.556396c61.763344 5.102417 181.52975 -5.906372 249.73752 8.057739c68.207794 13.964111 156.28696 114.127686 159.50919 75.72705c3.222229 -38.400757 -180.18765 -297.80664 -140.17584 -306.13123c40.01181 -8.324585 303.44574 240.87708 380.2467 256.18372c76.800964 15.306641 50.4834 -175.08533 80.55908 -164.34387c30.075684 10.741455 73.84729 256.18335 99.89502 228.79272c26.047668 -27.390747 31.954468 -392.86792 56.391052 -393.13654c24.436584 -0.26861572 63.37445 346.4112 90.22833 391.52496c26.853943 45.11377 54.514465 -121.37927 70.89508 -120.84253c16.380493 0.53674316 16.916016 130.23926 27.388428 124.06299c10.472412 -6.1762695 -16.112427 -148.23145 35.446167 -161.12073c51.558594 -12.889404 156.55554 102.045044 273.90552 83.78479c117.349976 -18.260254 336.74414 -223.95935 430.1942 -193.34644c93.450195 30.612793 103.38318 288.07166 130.50659 377.02356c27.123291 88.951904 96.528076 125.239746 32.23352 156.68762c-64.29431 31.447998 -274.33325 24.333374 -418.0 32.0c-143.66663 7.666748 -216.66663 17.0 -444.0 14.0c-227.33325 -3.0 -695.99994 -20.666626 -919.99994 -32.0c-224.0 -11.333252 -371.36615 30.580078 -424.0 -36.0c-52.633865 -66.579956 70.02362 -306.65967 108.19685 -363.48022z" fill-rule="evenodd"/><path fill="#7f4ba2" d="m595.895 266.45554l0 0c-1.9655762 -9.845428 29.536621 -24.454361 70.36224 -32.629913l0 0c40.82556 -8.175552 75.51471 -6.821823 77.480286 3.0236206l0 0c1.9656372 9.845459 -29.536621 24.454376 -70.36218 32.629913l0 0c-40.82556 8.175568 -75.51471 6.8218384 -77.48035 -3.0236206z" fill-rule="evenodd"/><path fill="#7f4ba2" d="m400.82812 277.3226l0 0c-0.100250244 -2.6271057 7.5137634 -5.4353027 21.166992 -7.8068237c13.653259 -2.371521 32.227325 -4.112091 51.63617 -4.8388367l0 0c40.41681 -1.5133362 73.35028 1.6947021 73.55902 7.165344l0 0c0.20874023 5.4706726 -32.38629 11.132324 -72.80313 12.645691l0 0c-40.41681 1.5133362 -73.35031 -1.6947021 -73.55905 -7.1653748z" fill-rule="evenodd"/><path fill="#7f4ba2" d="m279.7283 162.91354l0 0c1.6372375 -2.0549011 9.241821 0.78260803 21.140778 7.888321c11.898956 7.105713 27.117615 17.897552 42.308044 30.00145l0 0c31.632446 25.205048 54.51175 49.106705 51.102356 53.38582l0 0c-3.4093628 4.279129 -31.816376 -12.684708 -63.448822 -37.889755l0 0c-31.632416 -25.205063 -54.51172 -49.106705 -51.102356 -53.385834z" fill-rule="evenodd"/><path fill="#7f4ba2" d="m152.83067 102.34137l0 0c1.6372375 -2.0549088 9.241806 0.7826004 21.140762 7.8883133c11.898956 7.1057053 27.11763 17.897545 42.30806 30.001442l0 0c31.632431 25.205063 54.511734 49.10672 51.10237 53.385834l0 0c-3.4093933 4.279114 -31.816391 -12.684708 -63.448837 -37.88977l0 0c-31.632431 -25.205048 -54.511734 -49.106705 -51.102356 -53.38582z" fill-rule="evenodd"/><path fill="#7f4ba2" d="m1093.2229 248.25143l0 0c0.12109375 -2.6229248 7.944092 -4.7800446 21.747925 -5.996811c13.803955 -1.2167816 32.457886 -1.3935242 51.8584 -0.49137878l0 0c40.399414 1.8786469 72.94519 7.829376 72.69287 13.291351l0 0c-0.25219727 5.4619446 -33.20691 8.366821 -73.6062 6.4881897l0 0c-40.399414 -1.8786316 -72.94519 -7.829376 -72.69299 -13.291351z" fill-rule="evenodd"/><path fill="#7f4ba2" d="m1243.3975 18.182846l0 0c1.8873291 -5.131466 20.176636 -3.122035 40.85034 4.488188l0 0c20.673706 7.610224 35.903076 17.939402 34.015747 23.070868l0 0c-1.8873291 5.131462 -20.176636 3.1220322 -40.85034 -4.4881897l0 0c-20.673706 -7.610222 -35.903076 -17.939402 -34.015747 -23.070866z" fill-rule="evenodd"/><path fill="#7f4ba2" d="m1649.0942 86.68641l0 0c-1.5219727 -5.253227 14.4053955 -14.468407 35.57483 -20.582672l0 0c21.169434 -6.114273 39.564575 -6.8122864 41.08667 -1.5590591l0 0c1.5219727 5.253227 -14.4053955 14.468407 -35.57483 20.58268l0 0c-21.169434 6.1142654 -39.564575 6.8122787 -41.08667 1.5590515z" fill-rule="evenodd"/><path fill="#7f4ba2" d="m1311.5103 315.2741l0 0c0.751709 -2.5185242 8.865967 -2.7272034 22.557617 -0.58013916c13.69165 2.1470947 31.839111 6.4740295 50.450195 12.028931l0 0c38.755615 11.567566 68.904175 25.196442 67.33862 30.440948l0 0c-1.5655518 5.2445374 -34.25232 0.1187439 -73.007935 -11.448822l0 0c-38.755615 -11.567535 -68.90405 -25.196411 -67.3385 -30.440918z" fill-rule="evenodd"/><path fill="#ffffff" d="m-82.0907 909.7918c-305.3541 -51.75055 -95.32248 -264.31348 -2.3972626 -305.86853c92.925224 -41.555054 482.8108 85.271484 559.9486 56.538147c77.13782 -28.733337 -149.47943 -231.87323 -97.12167 -228.93814c52.357758 2.9351196 337.1274 230.94669 411.26822 246.54874c74.14081 15.602112 3.800232 -152.93616 33.57672 -152.93616c29.776428 0 77.3363 152.1637 145.08191 152.93616c67.74567 0.77246094 222.22308 -153.24506 261.39178 -148.30139c39.16858 4.9436035 -112.90991 191.09381 -26.379883 177.96326c86.53003 -13.130615 454.8335 -291.19562 545.55994 -256.74683c90.72656 34.44879 303.9536 386.97205 -1.2010498 463.4395c-305.1548 76.46747 -1524.3732 47.115784 -1829.7273 -4.6347656z" fill-rule="evenodd"/></g></svg>